<svg preserveAspectRatio="none" width="100%" height="100%" overflow="visible" style="display: block;" viewBox="0 0 28.6667 28.6667" fill="none" xmlns="http://www.w3.org/2000/svg">
<path id="Icon" d="M6.33333 6.33333H6.34667M6.33333 22.3333H6.34667M5.26667 11.6667H23.4C24.8935 11.6667 25.6402 11.6667 26.2106 11.376C26.7124 11.1204 27.1204 10.7124 27.376 10.2106C27.6667 9.64021 27.6667 8.89347 27.6667 7.4V5.26667C27.6667 3.77319 27.6667 3.02646 27.376 2.45603C27.1204 1.95426 26.7124 1.54631 26.2106 1.29065C25.6402 1 24.8935 1 23.4 1H5.26667C3.77319 1 3.02646 1 2.45603 1.29065C1.95426 1.54631 1.54631 1.95426 1.29065 2.45603C1 3.02646 1 3.77319 1 5.26667V7.4C1 8.89347 1 9.64021 1.29065 10.2106C1.54631 10.7124 1.95426 11.1204 2.45603 11.376C3.02646 11.6667 3.77319 11.6667 5.26667 11.6667ZM5.26667 27.6667H23.4C24.8935 27.6667 25.6402 27.6667 26.2106 27.376C26.7124 27.1204 27.1204 26.7124 27.376 26.2106C27.6667 25.6402 27.6667 24.8935 27.6667 23.4V21.2667C27.6667 19.7732 27.6667 19.0265 27.376 18.456C27.1204 17.9543 26.7124 17.5463 26.2106 17.2906C25.6402 17 24.8935 17 23.4 17H5.26667C3.77319 17 3.02646 17 2.45603 17.2906C1.95426 17.5463 1.54631 17.9543 1.29065 18.456C1 19.0265 1 19.7732 1 21.2667V23.4C1 24.8935 1 25.6402 1.29065 26.2106C1.54631 26.7124 1.95426 27.1204 2.45603 27.376C3.02646 27.6667 3.77319 27.6667 5.26667 27.6667Z" stroke="var(--stroke-0, #F8F9FD)" stroke-width="2" stroke-linecap="round" stroke-linejoin="round"/>
</svg>
